<?xml version="1.0" standalone="no"?>
<!DOCTYPE svg PUBLIC "-//W3C//DTD SVG 20010904//EN"
 "http://www.w3.org/TR/2001/REC-SVG-20010904/DTD/svg10.dtd">
<svg version="1.0" xmlns="http://www.w3.org/2000/svg"
 width="917.000000pt" height="917.000000pt" viewBox="0 0 917.000000 917.000000"
 preserveAspectRatio="xMidYMid meet">

<g transform="translate(0.000000,917.000000) scale(0.100000,-0.100000)"
fill="#000000" stroke="none">
<path d="M0 4585 l0 -4585 4585 0 4585 0 0 4585 0 4585 -4585 0 -4585 0 0
-4585z m2358 2335 l168 -275 -83 -3 c-46 -1 -83 -6 -83 -10 0 -4 41 -115 90
-246 49 -132 89 -241 87 -242 -2 -2 -400 612 -405 627 -2 5 37 9 87 9 50 0 91
4 91 8 0 5 -31 102 -70 216 -38 114 -70 211 -69 214 0 9 -6 20 187 -298z
m4551 91 c-38 -112 -69 -210 -69 -217 0 -11 21 -14 91 -14 l91 0 -19 -30 c-55
-92 -386 -600 -389 -598 -1 2 37 111 87 242 49 132 89 240 89 242 0 2 -38 5
-85 6 l-84 3 95 155 c53 85 132 215 176 288 44 73 82 132 83 130 2 -2 -27 -95
-66 -207z m-2351 142 c-2 -20 -9 -28 -23 -28 -14 0 -21 8 -23 28 -3 23 0 27
23 27 23 0 26 -4 23 -27z m-708 -9 c0 -13 10 -15 53 -12 47 3 52 1 55 -18 3
-24 -7 -28 -95 -40 -50 -6 -53 -5 -53 15 0 14 -6 21 -20 21 -13 0 -20 7 -20
18 0 26 9 32 47 32 23 0 33 -5 33 -16z m1554 -27 c8 -23 6 -31 -12 -49 -30
-30 -75 -16 -80 25 -5 38 15 59 52 55 23 -2 33 -10 40 -31z m-924 -38 c39 -8
54 -8 66 2 12 10 18 9 32 -5 16 -16 16 -18 -7 -37 -22 -18 -23 -25 -22 -120
l2 -100 -28 3 c-27 3 -28 5 -29 63 l-1 60 -52 3 c-61 4 -83 -10 -79 -47 2 -18
10 -27 26 -29 19 -3 23 -9 20 -30 -4 -36 -37 -40 -73 -9 -21 18 -28 32 -29 66
-1 36 4 47 32 72 28 25 40 29 92 29 45 0 60 4 60 14 0 29 -73 36 -119 11 -26
-13 -30 -13 -42 1 -16 19 -4 31 47 49 48 17 43 17 104 4z m317 -13 c24 -21 28
-32 31 -92 4 -88 -16 -132 -70 -152 -49 -19 -108 -9 -108 18 0 17 7 20 40 20
71 0 108 69 76 143 -20 48 -64 59 -128 32 -12 -5 -20 -2 -25 10 -10 29 24 45
93 45 52 0 68 -4 91 -24z m-546 -26 c6 -28 12 -176 10 -227 -1 -22 -42 -15
-48 7 -5 20 -7 20 -24 4 -10 -9 -41 -19 -67 -22 -41 -3 -53 0 -77 21 -28 24
-30 28 -33 131 l-4 106 25 0 c24 0 25 -2 33 -102 l9 -103 38 -3 c31 -3 43 2
68 27 29 30 31 34 29 109 -3 97 -3 94 17 90 10 -2 20 -17 24 -38z m667 -67 c3
-117 12 -130 72 -113 58 16 68 33 75 126 7 81 8 84 32 84 l25 0 -6 -82 c-15
-189 -16 -198 -38 -198 -12 0 -22 8 -25 21 -4 14 -10 18 -22 13 -32 -14 -92
-16 -122 -4 -46 19 -52 41 -44 149 8 107 10 113 33 109 14 -3 17 -20 20 -105z
m-983 67 c7 -11 -10 -46 -36 -75 -18 -20 -17 -22 31 -95 28 -41 50 -78 50 -82
0 -5 -14 -8 -30 -8 -26 0 -36 9 -74 69 -40 61 -47 68 -71 63 l-26 -5 6 -72 c7
-70 6 -72 -16 -78 -13 -3 -24 -5 -26 -3 -6 6 -40 261 -36 269 2 4 15 7 29 7
20 0 24 -5 24 -27 0 -50 13 -59 52 -37 18 11 42 34 53 52 20 31 57 43 70 22z
m1395 -5 c45 -23 60 -53 60 -118 0 -84 -29 -127 -100 -147 -37 -11 -44 -4 -65
60 -10 30 -24 59 -31 63 -22 13 -16 36 10 43 36 9 43 0 57 -61 7 -31 18 -55
25 -55 22 0 54 51 54 86 0 76 -44 112 -126 100 -35 -4 -46 -2 -51 10 -3 9 0
20 8 25 23 14 127 10 159 -6z m526 -10 c4 -8 31 -19 66 -26 57 -11 81 -30 62
-49 -10 -10 -162 25 -177 40 -5 4 -6 17 -2 29 7 24 43 28 51 6z m-276 -50 c16
-16 30 -36 30 -44 0 -9 -10 -58 -22 -108 -17 -73 -26 -93 -39 -93 -10 0 -20 4
-23 8 -3 5 2 50 12 101 15 90 15 94 -3 107 -10 8 -40 14 -66 14 -50 0 -65 10
-55 37 5 12 19 15 71 11 55 -3 69 -8 95 -33z m-2542 8 c9 -15 15 -15 50 -5 55
17 62 15 62 -11 0 -19 -9 -26 -53 -40 -62 -19 -87 -21 -87 -7 0 6 -11 15 -25
20 -31 12 -32 38 -2 50 33 13 45 12 55 -7z m599 -5 c34 -38 46 -69 46 -122 1
-66 -15 -93 -66 -117 -74 -33 -68 -38 -168 149 -33 61 -33 63 -15 77 10 8 22
12 27 9 4 -2 32 -49 61 -104 29 -55 55 -100 58 -100 4 0 17 10 29 21 20 19 23
29 19 75 -5 60 -28 94 -64 94 -13 0 -26 5 -29 10 -22 36 70 43 102 8z m2172
-28 c53 -15 91 -57 91 -99 0 -35 -33 -178 -43 -188 -3 -3 -15 -2 -27 2 -17 5
-20 12 -16 28 4 12 14 53 23 91 l17 68 -28 25 c-22 18 -38 23 -69 21 l-40 -3
-22 -93 c-12 -51 -25 -95 -28 -98 -9 -10 -46 16 -42 29 2 6 13 55 25 107 13
52 29 101 38 108 19 14 74 16 121 2z m-2422 -34 c17 -21 61 -201 52 -210 -2
-2 -13 -6 -24 -8 -17 -3 -22 8 -40 83 -29 124 -45 137 -120 99 -29 -15 -42
-17 -52 -9 -20 17 -16 25 20 48 23 15 49 21 89 21 48 0 59 -4 75 -24z m-247
-38 c0 -13 -9 -37 -20 -55 l-19 -32 65 -70 66 -71 -29 -11 c-27 -10 -31 -8
-88 54 -54 58 -62 64 -82 55 -28 -13 -28 -20 -4 -92 l19 -57 -24 -11 c-13 -6
-26 -9 -28 -7 -7 7 -76 236 -76 252 0 8 9 17 21 20 20 5 22 3 44 -61 9 -25 68
19 90 66 14 31 25 42 42 42 17 0 23 -6 23 -22z m2947 7 c56 -17 113 -70 113
-106 0 -26 -60 -199 -69 -199 -4 0 -15 6 -24 13 -15 11 -15 18 8 92 33 107 33
131 -5 150 -16 8 -47 15 -69 15 l-40 0 -22 -70 c-22 -74 -20 -100 6 -100 11 0
15 -7 13 -22 -5 -34 -47 -36 -78 -3 l-25 26 23 86 c23 91 34 110 67 123 29 13
46 12 102 -5z m-2124 -182 c7 -43 3 -53 -24 -53 -12 0 -19 7 -19 19 0 10 -10
25 -22 33 -28 19 -16 38 26 38 31 0 34 -3 39 -37z m612 -728 c94 -8 222 -24
285 -35 281 -50 669 -171 1044 -326 111 -46 147 -56 250 -69 247 -32 477 -96
694 -193 200 -90 452 -256 452 -298 0 -7 -24 -35 -52 -63 l-53 -51 -317 0
-318 0 0 40 c0 102 -50 228 -121 305 -207 224 -566 181 -722 -86 -67 -115 -74
-286 -16 -401 11 -21 19 -40 19 -43 0 -3 -563 -5 -1251 -5 -1188 0 -1251 1
-1244 18 35 83 47 125 52 183 21 253 -190 479 -447 479 -153 0 -308 -88 -385
-218 l-19 -32 -282 0 -281 0 -11 25 c-17 37 -15 95 5 117 12 13 30 18 70 18
l53 0 0 66 c0 61 -4 75 -57 175 -31 60 -55 110 -52 113 2 2 69 9 149 15 259
21 455 50 965 145 195 36 630 96 835 115 63 6 131 13 150 14 100 10 456 5 605
-8z m-1635 -621 c276 -82 369 -423 173 -634 -31 -34 -76 -70 -106 -84 -29 -14
-49 -25 -44 -26 51 -3 3011 1 3014 4 2 2 -12 9 -32 16 -57 19 -150 112 -187
188 -30 61 -33 74 -33 162 0 86 3 102 31 160 54 115 132 182 248 215 256 74
520 -143 493 -405 -14 -133 -99 -261 -210 -314 -29 -14 -47 -26 -42 -26 6 0
241 -1 523 -3 l514 -2 19 -24 c19 -23 19 -47 17 -749 l-3 -726 -130 -37 c-71
-20 -317 -90 -545 -154 -228 -64 -626 -177 -885 -250 -258 -73 -630 -178 -825
-233 l-355 -101 -240 68 c-132 38 -352 100 -490 139 -137 39 -457 129 -710
201 -253 72 -649 184 -880 249 l-420 118 -3 726 c-2 702 -2 726 17 749 l19 24
412 2 c227 1 414 4 417 6 2 3 -12 10 -32 17 -48 16 -145 107 -177 167 -74 139
-55 320 47 441 92 109 263 158 405 116z m-544 -246 c-16 -53 -17 -183 -3 -230
9 -28 11 -48 5 -48 -14 0 -295 109 -340 131 -32 16 -148 144 -148 163 0 3 111
6 246 6 l246 0 -6 -22z m4819 -258 c23 -31 35 -58 33 -72 l-3 -23 -374 -3
c-353 -2 -373 -1 -366 15 5 10 17 44 29 76 l21 57 312 0 311 0 37 -50z"/>
<path d="M5347 7113 c-12 -11 -8 -23 8 -23 8 0 15 7 15 15 0 16 -12 20 -23 8z"/>
<path d="M4262 5883 c-20 -3 -32 -9 -29 -16 2 -7 24 -68 47 -135 32 -92 49
-126 64 -133 12 -4 158 -31 326 -58 451 -74 630 -98 630 -85 0 4 -12 21 -27
36 l-27 28 39 40 c23 23 49 40 62 40 37 0 193 -61 193 -75 0 -8 -5 -26 -12
-40 -6 -14 -9 -27 -6 -30 4 -5 122 24 276 66 23 6 41 16 39 22 -7 22 -614 223
-902 299 l-160 42 -240 2 c-132 1 -255 0 -273 -3z"/>
<path d="M4028 5873 c-46 -4 -51 -7 -123 -91 -41 -47 -73 -88 -71 -90 4 -3
345 -67 396 -74 31 -4 31 -6 -21 145 l-41 117 -47 -2 c-25 -1 -67 -3 -93 -5z"/>
<path d="M1951 5644 c0 -5 19 -43 43 -84 l44 -75 97 -3 c101 -3 125 4 125 38
0 26 -74 86 -129 105 -54 19 -181 32 -180 19z"/>
<path d="M3790 5563 c-66 -6 -159 -35 -176 -54 -17 -19 -17 -21 0 -57 50 -107
243 -390 277 -408 17 -8 76 -24 132 -35 120 -22 107 -21 107 -10 0 5 -17 15
-37 22 -68 21 -130 57 -158 91 -37 43 -198 375 -189 389 3 6 26 20 50 30 43
20 67 40 42 37 -7 0 -29 -3 -48 -5z"/>
<path d="M3830 5451 c0 -19 31 -81 41 -81 18 0 885 -69 1202 -95 528 -44 451
-27 -298 65 -500 62 -779 97 -907 115 -21 3 -38 1 -38 -4z"/>
<path d="M6590 5372 c0 -4 8 -12 18 -18 9 -6 64 -51 122 -99 132 -110 159
-122 278 -127 50 -1 92 0 92 4 0 3 -24 27 -52 53 -66 57 -224 135 -345 169
-98 28 -113 30 -113 18z"/>
<path d="M3300 5349 c7 -13 48 -85 91 -161 44 -75 79 -143 79 -151 0 -9 -13
-54 -29 -101 -16 -48 -26 -84 -21 -81 5 3 32 46 61 96 l52 91 -21 26 c-12 15
-63 87 -114 160 -87 126 -125 173 -98 121z"/>
<path d="M3516 4914 c-14 -26 -25 -48 -24 -50 3 -2 1620 -24 1807 -24 57 0
102 2 100 4 -6 6 -179 17 -1034 66 -379 22 -720 42 -756 45 l-67 6 -26 -47z"/>
<path d="M2723 5199 c-24 -12 -43 -24 -43 -28 0 -13 116 -121 123 -115 4 4 7
43 7 86 0 74 -1 78 -22 78 -13 0 -42 -9 -65 -21z"/>
<path d="M2850 5142 c0 -43 3 -82 7 -86 7 -6 123 102 123 115 0 11 -84 49
-108 49 -21 0 -22 -4 -22 -78z"/>
<path d="M6003 5199 c-24 -12 -43 -24 -43 -29 0 -13 113 -120 121 -114 5 3 9
41 9 85 0 75 -1 79 -22 79 -13 0 -42 -9 -65 -21z"/>
<path d="M6130 5142 c0 -43 3 -82 7 -86 7 -6 123 102 123 115 0 11 -84 49
-108 49 -21 0 -22 -4 -22 -78z"/>
<path d="M2611 5087 c-12 -24 -21 -53 -21 -65 0 -21 4 -22 79 -22 47 0 83 4
87 11 7 12 -93 119 -112 119 -7 0 -22 -19 -33 -43z"/>
<path d="M2951 5076 c-29 -30 -50 -59 -47 -65 4 -7 40 -11 88 -11 l81 0 -7 33
c-8 41 -37 97 -51 97 -6 0 -35 -24 -64 -54z"/>
<path d="M5891 5087 c-12 -24 -21 -53 -21 -65 0 -21 4 -22 79 -22 47 0 83 4
87 11 7 12 -93 119 -112 119 -7 0 -22 -19 -33 -43z"/>
<path d="M6231 5076 c-29 -30 -50 -59 -47 -65 4 -7 40 -11 87 -11 65 0 79 3
79 16 0 26 -42 114 -54 114 -6 0 -36 -24 -65 -54z"/>
<path d="M2590 4945 c0 -19 26 -84 42 -102 9 -12 22 -3 70 44 32 31 58 61 58
65 0 4 -38 8 -85 8 -70 0 -85 -3 -85 -15z"/>
<path d="M2900 4952 c0 -16 112 -122 122 -116 13 9 48 85 48 107 0 15 -11 17
-85 17 -47 0 -85 -4 -85 -8z"/>
<path d="M5870 4944 c0 -19 40 -114 48 -114 9 0 122 113 122 122 0 4 -38 8
-85 8 -70 0 -85 -3 -85 -16z"/>
<path d="M6180 4951 c0 -17 111 -122 122 -115 13 8 47 84 48 107 0 15 -11 17
-85 17 -47 0 -85 -4 -85 -9z"/>
<path d="M2731 4856 c-30 -30 -50 -59 -47 -65 10 -15 55 -37 94 -46 l32 -7 0
86 c0 63 -3 86 -13 86 -7 0 -37 -24 -66 -54z"/>
<path d="M2850 4825 c0 -74 2 -85 18 -85 23 1 98 35 107 50 8 13 -91 120 -112
120 -10 0 -13 -22 -13 -85z"/>
<path d="M6011 4856 c-33 -33 -51 -59 -46 -66 9 -15 84 -49 108 -50 15 0 17
11 17 85 0 63 -3 85 -13 85 -7 0 -37 -24 -66 -54z"/>
<path d="M6130 4824 l0 -86 33 7 c38 9 83 31 93 46 7 12 -93 119 -113 119 -10
0 -13 -23 -13 -86z"/>
<path d="M1907 4513 c-4 -3 -7 -111 -7 -240 l0 -233 165 0 c140 0 165 -2 165
-15 0 -13 -25 -15 -166 -15 l-165 0 3 -37 3 -38 160 -2 c137 -1 160 -4 163
-17 3 -14 -17 -16 -162 -16 l-166 0 0 -40 0 -40 165 0 c140 0 165 -2 165 -15
0 -13 -25 -15 -165 -15 l-165 0 0 -40 0 -40 165 0 c140 0 165 -2 165 -15 0
-13 -25 -15 -165 -15 l-165 0 0 -263 0 -263 223 -63 c122 -34 395 -111 607
-171 938 -266 1352 -383 1591 -450 l255 -72 485 137 c266 75 635 180 819 232
184 52 468 132 630 178 162 46 394 111 515 145 121 35 223 68 227 74 9 13 11
478 2 500 -5 14 -29 16 -165 16 -135 0 -159 2 -159 15 0 13 24 15 159 15 151
0 160 1 166 20 3 11 3 29 0 40 -6 19 -15 20 -166 20 -135 0 -159 2 -159 15 0
13 24 15 160 15 l160 0 6 25 c13 53 8 55 -166 55 -136 0 -160 2 -160 15 0 13
24 15 160 15 l160 0 6 25 c13 53 8 55 -166 55 -136 0 -160 2 -160 15 0 13 24
15 159 15 136 0 160 2 165 16 8 20 8 428 0 448 -6 15 -250 16 -2673 16 -1467
0 -2671 -3 -2674 -7z m4951 -385 c3 -27 1 -28 -41 -28 -27 0 -49 -6 -57 -15
-7 -8 -21 -15 -31 -15 -16 0 -19 8 -19 45 l0 46 73 -3 c70 -3 72 -4 75 -30z
m-4253 -200 c0 -183 -1 -199 -21 -225 -45 -61 -136 -79 -242 -48 l-52 16 0
174 0 175 30 0 30 0 0 -144 c0 -160 1 -164 68 -173 44 -6 95 15 112 46 6 12
10 96 10 201 l0 181 33 -3 32 -3 0 -197z m1365 167 l0 -26 -132 3 c-129 3
-133 4 -136 26 -3 22 -3 22 132 22 l136 0 0 -25z m1108 3 c-3 -22 -7 -23 -135
-26 l-133 -3 0 26 0 25 136 0 c135 0 135 0 132 -22z m-2175 -94 c15 -8 26 -18
24 -22 -2 -4 -7 -14 -10 -24 -5 -15 -10 -15 -47 -2 -49 17 -106 10 -120 -16
-14 -26 6 -45 81 -78 36 -17 75 -42 87 -57 42 -53 19 -127 -48 -155 -40 -16
-140 -9 -174 13 -23 15 -25 21 -15 40 7 12 13 23 14 25 1 1 15 -4 31 -13 58
-30 144 -10 144 34 0 25 -25 44 -91 70 -90 36 -121 84 -94 148 8 18 15 33 17
33 2 0 21 7 43 15 45 17 113 12 158 -11z m652 10 c42 -14 49 -14 70 0 21 14
24 13 46 -10 24 -25 24 -26 5 -40 -11 -8 -23 -14 -28 -14 -4 0 -8 -70 -8 -155
l0 -155 -35 0 -35 0 0 85 0 85 -74 0 c-54 0 -79 -4 -90 -16 -30 -29 -13 -94
24 -94 16 0 20 -7 20 -30 0 -28 -2 -30 -39 -30 -54 0 -91 43 -91 104 0 84 61
126 180 126 l70 0 0 29 c0 56 -78 79 -154 47 -32 -13 -36 -13 -55 8 -12 12
-21 25 -21 28 0 8 75 36 110 41 48 8 60 7 105 -9z m407 -10 c25 -13 26 -17 16
-39 -13 -28 -19 -30 -36 -13 -18 18 -109 15 -129 -4 -26 -26 -8 -47 70 -83 79
-35 117 -72 117 -112 0 -40 -29 -84 -65 -99 -75 -31 -204 -4 -197 41 6 32 17
37 48 20 61 -32 149 -8 142 38 -2 16 -23 32 -75 57 -95 46 -118 69 -118 120 0
47 26 78 76 90 42 11 115 3 151 -16z m289 16 c46 -13 59 -29 49 -57 -8 -20
-11 -20 -47 -7 -75 26 -163 10 -163 -31 0 -20 27 -32 103 -45 37 -7 82 -22
100 -34 30 -20 32 -26 35 -87 3 -58 0 -67 -23 -89 -19 -18 -40 -25 -83 -28
-65 -5 -72 0 -92 62 -7 22 -20 41 -31 43 -12 3 -19 14 -19 29 0 21 5 24 39 24
37 0 40 -2 57 -45 14 -38 21 -45 43 -45 36 0 51 17 51 56 0 28 -5 34 -32 43
-18 5 -55 13 -83 17 -88 12 -125 41 -125 101 0 81 106 125 221 93z m455 -1
c79 -20 121 -99 111 -211 -9 -99 -61 -160 -139 -162 l-42 -1 -31 80 c-20 51
-37 81 -48 83 -11 2 -17 13 -17 28 0 23 3 25 41 22 l42 -3 27 -75 c15 -41 33
-75 40 -75 24 0 51 51 57 106 12 117 -46 172 -155 147 -75 -16 -72 -16 -89 9
-14 21 -14 23 13 34 26 10 96 25 132 28 7 0 33 -4 58 -10z m323 0 c59 -12 77
-29 62 -57 -10 -19 -13 -19 -53 -5 -59 20 -118 4 -118 -33 0 -21 10 -29 68
-55 90 -40 122 -72 122 -120 0 -74 -62 -115 -159 -106 -85 7 -118 34 -92 75 7
12 14 11 39 -2 82 -42 184 13 125 67 -10 8 -44 25 -75 37 -68 25 -98 59 -98
110 0 41 29 75 76 90 40 12 46 11 103 -1z m374 -15 c52 -28 67 -67 67 -182 0
-101 0 -103 26 -112 40 -16 79 -12 107 11 26 20 26 23 29 157 l3 137 30 0 30
0 0 -152 0 -153 -33 -32 c-31 -32 -35 -33 -115 -33 -59 0 -91 5 -114 18 l-33
18 0 119 0 120 -32 20 c-36 22 -82 26 -122 10 -26 -9 -26 -10 -26 -124 0 -105
1 -114 20 -119 15 -4 20 -14 20 -36 0 -31 -1 -31 -50 -31 l-50 0 0 173 0 174
38 16 c20 9 48 18 62 21 38 6 111 -4 143 -20z m1263 9 c21 -13 30 -14 45 -5
33 21 76 14 114 -19 l35 -31 0 -159 0 -159 -30 0 -30 0 0 140 c0 127 -2 142
-20 160 -25 25 -32 25 -61 1 -23 -18 -24 -18 -51 2 -26 19 -28 19 -52 3 -25
-16 -26 -20 -26 -119 0 -56 4 -107 8 -113 4 -7 18 -14 32 -15 19 -3 26 -11 28
-31 3 -27 1 -28 -38 -28 -30 0 -47 6 -65 25 -24 23 -25 29 -25 153 0 117 2
132 22 157 12 15 35 33 52 41 39 17 32 17 62 -3z m-3396 -183 l0 -190 -35 0
-35 0 0 190 0 190 35 0 35 0 0 -190z m1185 0 l0 -185 -32 -3 -33 -3 0 191 0
191 33 -3 32 -3 0 -185z m1443 164 c3 -18 -4 -23 -33 -28 -24 -5 -39 -15 -47
-31 -14 -30 0 -50 50 -70 38 -16 39 -38 1 -43 -30 -5 -59 -30 -59 -52 0 -9 11
-27 25 -40 21 -20 36 -24 79 -24 29 1 58 4 65 8 7 5 11 56 11 157 l0 149 35 0
35 0 0 -175 c0 -204 5 -196 -120 -202 -64 -4 -82 -1 -120 19 -61 31 -79 77
-58 143 14 40 14 50 1 88 -12 32 -13 48 -4 70 21 52 132 77 139 31z m302 -118
c0 -138 1 -146 22 -160 30 -21 56 -20 96 4 58 36 73 72 72 180 -1 52 -1 101
-1 108 1 9 11 12 29 10 l27 -3 0 -185 0 -185 -27 -3 c-28 -3 -32 3 -29 41 3
22 -12 22 -30 0 -34 -40 -118 -54 -168 -28 -50 25 -61 66 -61 224 l0 141 35 0
35 0 0 -144z m-3160 79 c0 -11 11 -15 40 -15 27 0 43 -5 46 -15 12 -30 -12
-40 -85 -37 l-71 4 0 39 c0 38 1 39 35 39 24 0 35 -5 35 -15z m-3 -194 c4 -15
15 -21 47 -23 33 -2 41 -7 41 -23 0 -18 -8 -20 -77 -23 l-78 -3 0 39 c0 45 5
52 38 52 15 0 26 -7 29 -19z m2651 -143 c2 -9 -13 -29 -34 -44 -29 -22 -50
-29 -100 -32 -71 -5 -94 6 -94 45 0 23 2 23 63 18 49 -5 70 -2 102 14 45 22
59 21 63 -1z m-1425 -28 c4 15 13 20 36 20 29 0 31 -3 31 -34 0 -27 -7 -40
-32 -60 l-32 -25 -34 21 c-31 19 -35 20 -70 5 -20 -9 -52 -19 -70 -22 -27 -6
-33 -3 -41 17 -11 30 -6 38 28 38 15 0 47 13 71 28 45 28 45 28 76 10 31 -18
32 -18 37 2z m-678 -530 c6 -27 10 -30 48 -30 l42 -1 -31 -27 c-28 -24 -30
-30 -22 -55 13 -35 4 -45 -20 -24 -23 21 -46 22 -62 2 -19 -23 -43 -20 -30 4
17 32 12 57 -15 71 -35 19 -31 28 12 32 32 3 39 7 47 35 10 38 22 35 31 -7z
m2011 8 c8 -29 14 -33 47 -36 43 -4 47 -13 12 -32 -27 -14 -32 -39 -15 -71 13
-24 -11 -27 -30 -4 -16 20 -39 19 -62 -2 -24 -21 -33 -11 -20 24 8 25 6 31
-22 55 l-31 27 42 1 c40 0 42 2 49 35 8 44 18 45 30 3z m-973 -396 c43 -4 47
-13 12 -32 -27 -14 -32 -39 -15 -71 13 -24 -11 -27 -30 -4 -16 20 -39 19 -62
-2 -24 -22 -33 -11 -20 26 10 28 8 32 -19 48 -39 23 -37 33 7 33 31 0 37 4 51
38 l16 37 12 -35 c10 -30 16 -35 48 -38z"/>
</g>
</svg>
